<svg id="Layer_2" data-name="Layer 2" xmlns="http://www.w3.org/2000/svg" viewBox="0 0 199.86 211"><defs><style>.cls-1{fill:#3e6a45;}</style></defs><title>veggie</title><path class="cls-1" d="M136,245.27c5.37.32,9.61,1.13,11-7.63s6.78-50,14.69-74.33,18.09-48.89,22.61-50.58,16.68-2.55,24.59-6.22,25.43-15,27.69-35.89a227.25,227.25,0,0,1,6.79-36.18s-39.66,6.82-53.7,12.15C169.44,54.29,159.17,78,158.6,90.12s2,16.95,2,16.95c-.17.09,13.34-29.16,30.58-37.26,9.87-4.64,9.27-2.87,9.27-2.87s-11,6.5-20.91,23.18-39.29,94.11-42.11,109.08c0,0-16.17-61.31-30.52-94.39C91,68.09,65.06,51.68,58.28,46.31s-15.55-6.78-14.7-6.22S73.72,73,88,103.4c11.94,25.53,31.37,92.7,34.48,114.17S126.39,244.71,136,245.27Z" transform="translate(-43.52 -34.44)"/></svg>